<svg width="16" height="20" viewBox="0 0 16 20" fill="none" xmlns="http://www.w3.org/2000/svg">
<path d="M5 5H11H5ZM11 15V12V15ZM8 15H8.01H8ZM5 15H5.01H5ZM5 12H5.01H5ZM8 12H8.01H8ZM11 9H11.01H11ZM8 9H8.01H8ZM5 9H5.01H5ZM3 19H13C13.5304 19 14.0391 18.7893 14.4142 18.4142C14.7893 18.0391 15 17.5304 15 17V3C15 2.46957 14.7893 1.96086 14.4142 1.58579C14.0391 1.21071 13.5304 1 13 1H3C2.46957 1 1.96086 1.21071 1.58579 1.58579C1.21071 1.96086 1 2.46957 1 3V17C1 17.5304 1.21071 18.0391 1.58579 18.4142C1.96086 18.7893 2.46957 19 3 19Z" stroke="#6875F5" stroke-width="2" stroke-linecap="round" stroke-linejoin="round"/>
</svg>
