<svg width="18" height="18" viewBox="0 0 18 18" fill="none" xmlns="http://www.w3.org/2000/svg">
<path d="M13.5092 13.5092L16.5 16.5M10.5625 14.6875C10.0474 14.7849 9.52424 14.8337 8.99999 14.8333C5.26832 14.8333 2.10999 12.3808 1.04749 9C1.33354 8.09008 1.77415 7.23622 2.34999 6.47583L10.5625 14.6875ZM7.23165 7.2325C7.70053 6.76362 8.33647 6.5002 8.99957 6.5002C9.66267 6.5002 10.2986 6.76362 10.7675 7.2325C11.2364 7.70138 11.4998 8.33732 11.4998 9.00042C11.4998 9.66351 11.2364 10.2995 10.7675 10.7683L7.23165 7.2325ZM7.23165 7.23167L10.7667 10.7667L7.23165 7.23167ZM7.23332 7.23333L4.49165 4.49167L7.23332 7.23333ZM10.7683 10.7683L13.51 13.51L10.7683 10.7683ZM1.49999 1.5L4.49165 4.49167L1.49999 1.5ZM4.49165 4.49167C5.83528 3.62464 7.4009 3.1645 8.99999 3.16667C12.7317 3.16667 15.89 5.61917 16.9525 9C16.3659 10.8587 15.1478 12.4538 13.5092 13.5092L4.49165 4.49167Z" stroke="#97A6BA" stroke-width="2" stroke-linecap="round" stroke-linejoin="round"/>
</svg>
