<svg width="108" height="108" viewBox="0 0 108 108" fill="none" xmlns="http://www.w3.org/2000/svg">
<circle cx="54" cy="54" r="54" fill="#F0F5FF"/>
<path fill-rule="evenodd" clip-rule="evenodd" d="M74.5796 52.0204C75.1045 52.5455 75.3994 53.2575 75.3994 54C75.3994 54.7424 75.1045 55.4545 74.5796 55.9796L54.9796 75.5796C54.4545 76.1045 53.7424 76.3994 53 76.3994C52.2575 76.3994 51.5455 76.1045 51.0204 75.5796L31.4204 55.9796C31.16 55.7199 30.9535 55.4114 30.8127 55.0716C30.6719 54.7319 30.5996 54.3677 30.6 54V40C30.6 37.7722 31.485 35.6356 33.0603 34.0603C34.6356 32.485 36.7722 31.6 39 31.6H53C53.7168 31.6 54.4336 31.8744 54.9796 32.4204L74.5796 52.0204ZM39 42.8C39.7426 42.8 40.4548 42.505 40.9799 41.9799C41.505 41.4548 41.8 40.7426 41.8 40C41.8 39.2574 41.505 38.5452 40.9799 38.0201C40.4548 37.495 39.7426 37.2 39 37.2C38.2574 37.2 37.5452 37.495 37.0201 38.0201C36.495 38.5452 36.2 39.2574 36.2 40C36.2 40.7426 36.495 41.4548 37.0201 41.9799C37.5452 42.505 38.2574 42.8 39 42.8Z" fill="#6875F5"/>
</svg>
