<svg width="20" height="18" viewBox="0 0 20 18" fill="none" xmlns="http://www.w3.org/2000/svg">
<path fill-rule="evenodd" clip-rule="evenodd" d="M1.80641 2.20635C2.70654 1.30649 3.92722 0.800975 5.20001 0.800975C6.47279 0.800975 7.69347 1.30649 8.59361 2.20635L10 3.61155L11.4064 2.20635C11.8492 1.7479 12.3788 1.38223 12.9645 1.13066C13.5501 0.8791 14.1799 0.746686 14.8173 0.741148C15.4546 0.73561 16.0867 0.857058 16.6766 1.09841C17.2665 1.33975 17.8024 1.69617 18.2531 2.14685C18.7038 2.59754 19.0602 3.13347 19.3015 3.72337C19.5429 4.31327 19.6643 4.94533 19.6588 5.58268C19.6533 6.22002 19.5209 6.84987 19.2693 7.43549C19.0177 8.02111 18.6521 8.55077 18.1936 8.99355L10 17.1883L1.80641 8.99355C0.906545 8.09342 0.401031 6.87274 0.401031 5.59995C0.401031 4.32716 0.906545 3.10648 1.80641 2.20635Z" fill="#E74694"/>
</svg>
