<svg width="30" height="30" viewBox="0 0 30 30" fill="none" xmlns="http://www.w3.org/2000/svg">
<path fill-rule="evenodd" clip-rule="evenodd" d="M1.46447 1.46447C2.40215 0.526784 3.67392 0 5 0H25C26.3261 0 27.5979 0.526784 28.5355 1.46447C29.4732 2.40215 30 3.67392 30 5V18.3317C30 18.3328 30 18.3339 30 18.335V25C30 26.3261 29.4732 27.5979 28.5355 28.5355C27.5979 29.4732 26.3261 30 25 30H5C3.67392 30 2.40215 29.4732 1.46447 28.5355C0.526784 27.5979 0 26.3261 0 25V21.667C0 21.6668 0 21.6671 0 21.667V5C0 3.67392 0.526784 2.40215 1.46447 1.46447ZM3.33333 22.357V25C3.33333 25.442 3.50893 25.8659 3.82149 26.1785C4.13405 26.4911 4.55797 26.6667 5 26.6667H25C25.442 26.6667 25.8659 26.4911 26.1785 26.1785C26.4911 25.8659 26.6667 25.442 26.6667 25V19.0237L24.5117 16.8687C24.5116 16.8686 24.5117 16.8687 24.5117 16.8687C24.1991 16.5563 23.7752 16.3807 23.3333 16.3807C22.8915 16.3807 22.4677 16.5562 22.1552 16.8685C22.1551 16.8686 22.1552 16.8685 22.1552 16.8685L20.6904 18.3333L22.8452 20.4882C23.4961 21.139 23.4961 22.1943 22.8452 22.8452C22.1943 23.4961 21.139 23.4961 20.4882 22.8452L12.845 15.202C12.8449 15.202 12.8451 15.2021 12.845 15.202C12.5325 14.8897 12.1085 14.714 11.6667 14.714C11.2248 14.714 10.801 14.8895 10.4885 15.2018C10.4885 15.2019 10.4886 15.2018 10.4885 15.2018L3.33333 22.357ZM18.3333 15.9763L15.2018 12.8448C14.2642 11.9075 12.9925 11.3807 11.6667 11.3807C10.3408 11.3807 9.06931 11.9073 8.13167 12.8446L3.33333 17.643V5C3.33333 4.55797 3.50893 4.13405 3.82149 3.82149C4.13405 3.50893 4.55797 3.33333 5 3.33333H25C25.442 3.33333 25.8659 3.50893 26.1785 3.82149C26.4911 4.13405 26.6667 4.55797 26.6667 5V14.3206C25.7525 13.5028 24.5664 13.0474 23.3333 13.0474C22.0075 13.0474 20.736 13.574 19.7983 14.5113L18.3333 15.9763ZM16.6667 8.33333C16.6667 7.41286 17.4129 6.66667 18.3333 6.66667H18.35C19.2705 6.66667 20.0167 7.41286 20.0167 8.33333C20.0167 9.25381 19.2705 10 18.35 10H18.3333C17.4129 10 16.6667 9.25381 16.6667 8.33333Z" fill="#6875F5"/>
</svg>
