<svg width="28" height="22" viewBox="0 0 28 22" fill="none" xmlns="http://www.w3.org/2000/svg">
<path fill-rule="evenodd" clip-rule="evenodd" d="M9.60915 1.50523C10.3591 0.755123 11.3763 0.333601 12.437 0.333374H23.3333C24.3942 0.333374 25.4116 0.754801 26.1617 1.50495C26.9119 2.25509 27.3333 3.27251 27.3333 4.33337V17.6667C27.3333 18.7276 26.9119 19.745 26.1617 20.4951C25.4116 21.2453 24.3942 21.6667 23.3333 21.6667H12.4373C11.3766 21.6665 10.3591 21.245 9.60915 20.4948C9.6091 20.4948 9.6092 20.4949 9.60915 20.4948L1.05715 11.9428C0.536451 11.4222 0.536451 10.5779 1.05715 10.0572L9.60915 1.50523C9.6092 1.50518 9.6091 1.50528 9.60915 1.50523ZM12.4373 3.00004C12.0838 3.00019 11.7448 3.14071 11.4949 3.39071L3.88558 11L11.4948 18.6092C11.7447 18.8592 12.0838 18.9999 12.4373 19C12.4372 19 12.4374 19 12.4373 19H23.3333C23.6869 19 24.0261 18.8596 24.2761 18.6095C24.5262 18.3595 24.6666 18.0203 24.6666 17.6667V4.33337C24.6666 3.97975 24.5262 3.64061 24.2761 3.39056C24.0261 3.14052 23.6869 3.00004 23.3333 3.00004H12.4373C12.4374 3.00004 12.4372 3.00004 12.4373 3.00004ZM13.0572 7.39056C13.5778 6.86987 14.4221 6.86987 14.9428 7.39056L16.6666 9.11442L18.3905 7.39056C18.9112 6.86987 19.7554 6.86987 20.2761 7.39056C20.7968 7.91126 20.7968 8.75548 20.2761 9.27618L18.5522 11L20.2761 12.7239C20.7968 13.2446 20.7968 14.0888 20.2761 14.6095C19.7554 15.1302 18.9112 15.1302 18.3905 14.6095L16.6666 12.8857L14.9428 14.6095C14.4221 15.1302 13.5778 15.1302 13.0572 14.6095C12.5365 14.0888 12.5365 13.2446 13.0572 12.7239L14.781 11L13.0572 9.27618C12.5365 8.75548 12.5365 7.91126 13.0572 7.39056Z" fill="#1A202E"/>
</svg>
