<svg width="19" height="18" viewBox="0 0 19 18" fill="none" xmlns="http://www.w3.org/2000/svg">
<path d="M9 1V2M15 13H17M11 13H9V17M9 6V9M9 9H9.01M9 9H13.01M13 17H17M1 9H5M17 9H17.01M2 5H4C4.26522 5 4.51957 4.89464 4.70711 4.70711C4.89464 4.51957 5 4.26522 5 4V2C5 1.73478 4.89464 1.48043 4.70711 1.29289C4.51957 1.10536 4.26522 1 4 1H2C1.73478 1 1.48043 1.10536 1.29289 1.29289C1.10536 1.48043 1 1.73478 1 2V4C1 4.26522 1.10536 4.51957 1.29289 4.70711C1.48043 4.89464 1.73478 5 2 5ZM14 5H16C16.2652 5 16.5196 4.89464 16.7071 4.70711C16.8946 4.51957 17 4.26522 17 4V2C17 1.73478 16.8946 1.48043 16.7071 1.29289C16.5196 1.10536 16.2652 1 16 1H14C13.7348 1 13.4804 1.10536 13.2929 1.29289C13.1054 1.48043 13 1.73478 13 2V4C13 4.26522 13.1054 4.51957 13.2929 4.70711C13.4804 4.89464 13.7348 5 14 5ZM2 17H4C4.26522 17 4.51957 16.8946 4.70711 16.7071C4.89464 16.5196 5 16.2652 5 16V14C5 13.7348 4.89464 13.4804 4.70711 13.2929C4.51957 13.1054 4.26522 13 4 13H2C1.73478 13 1.48043 13.1054 1.29289 13.2929C1.10536 13.4804 1 13.7348 1 14V16C1 16.2652 1.10536 16.5196 1.29289 16.7071C1.48043 16.8946 1.73478 17 2 17Z" stroke="#4A5568" stroke-width="2" stroke-linecap="round" stroke-linejoin="round"/>
</svg>
